<mxfile host="app.diagrams.net" modified="2022-01-25T14:47:40.606Z" agent="5.0 (Windows NT 10.0; Win64; x64) AppleWebKit/537.36 (KHTML, like Gecko) Chrome/97.0.4692.99 Safari/537.36" etag="dqC1Lx3k7j8aykxb2lrL" version="16.4.6" type="github">
  <diagram id="R2lEEEUBdFMjLlhIrx00" name="Page-1">
    <mxGraphModel dx="1102" dy="614" grid="1" gridSize="10" guides="1" tooltips="1" connect="1" arrows="1" fold="1" page="1" pageScale="1" pageWidth="850" pageHeight="1100" math="0" shadow="0" extFonts="Permanent Marker^https://fonts.googleapis.com/css?family=Permanent+Marker">
      <root>
        <mxCell id="0" />
        <mxCell id="1" parent="0" />
        <mxCell id="9171kYd5YMUd0yYPw1ae-16" style="edgeStyle=orthogonalEdgeStyle;rounded=0;orthogonalLoop=1;jettySize=auto;html=1;exitX=1;exitY=0.5;exitDx=0;exitDy=0;entryX=0;entryY=0.5;entryDx=0;entryDy=0;" edge="1" parent="1" source="9171kYd5YMUd0yYPw1ae-1" target="9171kYd5YMUd0yYPw1ae-7">
          <mxGeometry relative="1" as="geometry" />
        </mxCell>
        <mxCell id="9171kYd5YMUd0yYPw1ae-1" value="Usuario" style="rounded=0;whiteSpace=wrap;html=1;" vertex="1" parent="1">
          <mxGeometry x="40" y="260" width="120" height="60" as="geometry" />
        </mxCell>
        <mxCell id="9171kYd5YMUd0yYPw1ae-18" value="" style="edgeStyle=orthogonalEdgeStyle;rounded=0;orthogonalLoop=1;jettySize=auto;html=1;" edge="1" parent="1" source="9171kYd5YMUd0yYPw1ae-2" target="9171kYd5YMUd0yYPw1ae-15">
          <mxGeometry relative="1" as="geometry" />
        </mxCell>
        <mxCell id="9171kYd5YMUd0yYPw1ae-2" value="Tarea" style="rounded=0;whiteSpace=wrap;html=1;" vertex="1" parent="1">
          <mxGeometry x="340" y="260" width="120" height="60" as="geometry" />
        </mxCell>
        <mxCell id="9171kYd5YMUd0yYPw1ae-3" value="Pago" style="rounded=0;whiteSpace=wrap;html=1;" vertex="1" parent="1">
          <mxGeometry x="340" y="20" width="440" height="60" as="geometry" />
        </mxCell>
        <mxCell id="9171kYd5YMUd0yYPw1ae-28" value="" style="edgeStyle=orthogonalEdgeStyle;rounded=0;orthogonalLoop=1;jettySize=auto;html=1;" edge="1" parent="1" source="9171kYd5YMUd0yYPw1ae-4" target="9171kYd5YMUd0yYPw1ae-10">
          <mxGeometry relative="1" as="geometry" />
        </mxCell>
        <mxCell id="9171kYd5YMUd0yYPw1ae-4" value="Agenda" style="rounded=0;whiteSpace=wrap;html=1;" vertex="1" parent="1">
          <mxGeometry x="40" y="530" width="120" height="60" as="geometry" />
        </mxCell>
        <mxCell id="9171kYd5YMUd0yYPw1ae-5" value="Reclamo" style="rounded=0;whiteSpace=wrap;html=1;" vertex="1" parent="1">
          <mxGeometry x="370" y="530" width="410" height="60" as="geometry" />
        </mxCell>
        <mxCell id="9171kYd5YMUd0yYPw1ae-23" value="" style="edgeStyle=orthogonalEdgeStyle;rounded=0;orthogonalLoop=1;jettySize=auto;html=1;" edge="1" parent="1" source="9171kYd5YMUd0yYPw1ae-6" target="9171kYd5YMUd0yYPw1ae-12">
          <mxGeometry relative="1" as="geometry" />
        </mxCell>
        <mxCell id="9171kYd5YMUd0yYPw1ae-29" value="" style="edgeStyle=orthogonalEdgeStyle;rounded=0;orthogonalLoop=1;jettySize=auto;html=1;" edge="1" parent="1" source="9171kYd5YMUd0yYPw1ae-6" target="9171kYd5YMUd0yYPw1ae-11">
          <mxGeometry relative="1" as="geometry" />
        </mxCell>
        <mxCell id="9171kYd5YMUd0yYPw1ae-6" value="Cliente" style="rounded=0;whiteSpace=wrap;html=1;" vertex="1" parent="1">
          <mxGeometry x="660" y="260" width="120" height="60" as="geometry" />
        </mxCell>
        <mxCell id="9171kYd5YMUd0yYPw1ae-17" style="edgeStyle=orthogonalEdgeStyle;rounded=0;orthogonalLoop=1;jettySize=auto;html=1;exitX=1;exitY=0.5;exitDx=0;exitDy=0;entryX=0;entryY=0.5;entryDx=0;entryDy=0;" edge="1" parent="1" source="9171kYd5YMUd0yYPw1ae-7" target="9171kYd5YMUd0yYPw1ae-2">
          <mxGeometry relative="1" as="geometry" />
        </mxCell>
        <mxCell id="9171kYd5YMUd0yYPw1ae-7" value="hace" style="rhombus;whiteSpace=wrap;html=1;" vertex="1" parent="1">
          <mxGeometry x="210" y="250" width="80" height="80" as="geometry" />
        </mxCell>
        <mxCell id="9171kYd5YMUd0yYPw1ae-21" value="" style="edgeStyle=orthogonalEdgeStyle;rounded=0;orthogonalLoop=1;jettySize=auto;html=1;" edge="1" parent="1" source="9171kYd5YMUd0yYPw1ae-9" target="9171kYd5YMUd0yYPw1ae-2">
          <mxGeometry relative="1" as="geometry" />
        </mxCell>
        <mxCell id="9171kYd5YMUd0yYPw1ae-22" value="" style="edgeStyle=orthogonalEdgeStyle;rounded=0;orthogonalLoop=1;jettySize=auto;html=1;" edge="1" parent="1" source="9171kYd5YMUd0yYPw1ae-9" target="9171kYd5YMUd0yYPw1ae-6">
          <mxGeometry relative="1" as="geometry" />
        </mxCell>
        <mxCell id="9171kYd5YMUd0yYPw1ae-9" value="propone&lt;br&gt;" style="rhombus;whiteSpace=wrap;html=1;" vertex="1" parent="1">
          <mxGeometry x="510" y="250" width="80" height="80" as="geometry" />
        </mxCell>
        <mxCell id="9171kYd5YMUd0yYPw1ae-27" value="" style="edgeStyle=orthogonalEdgeStyle;rounded=0;orthogonalLoop=1;jettySize=auto;html=1;" edge="1" parent="1" source="9171kYd5YMUd0yYPw1ae-10" target="9171kYd5YMUd0yYPw1ae-1">
          <mxGeometry relative="1" as="geometry" />
        </mxCell>
        <mxCell id="9171kYd5YMUd0yYPw1ae-10" value="tiene" style="rhombus;whiteSpace=wrap;html=1;" vertex="1" parent="1">
          <mxGeometry x="60" y="380" width="80" height="80" as="geometry" />
        </mxCell>
        <mxCell id="9171kYd5YMUd0yYPw1ae-20" value="" style="edgeStyle=orthogonalEdgeStyle;rounded=0;orthogonalLoop=1;jettySize=auto;html=1;" edge="1" parent="1" source="9171kYd5YMUd0yYPw1ae-11" target="9171kYd5YMUd0yYPw1ae-3">
          <mxGeometry relative="1" as="geometry" />
        </mxCell>
        <mxCell id="9171kYd5YMUd0yYPw1ae-11" value="hace" style="rhombus;whiteSpace=wrap;html=1;" vertex="1" parent="1">
          <mxGeometry x="680" y="130" width="80" height="80" as="geometry" />
        </mxCell>
        <mxCell id="9171kYd5YMUd0yYPw1ae-24" value="" style="edgeStyle=orthogonalEdgeStyle;rounded=0;orthogonalLoop=1;jettySize=auto;html=1;" edge="1" parent="1" source="9171kYd5YMUd0yYPw1ae-12" target="9171kYd5YMUd0yYPw1ae-5">
          <mxGeometry relative="1" as="geometry" />
        </mxCell>
        <mxCell id="9171kYd5YMUd0yYPw1ae-12" value="hace" style="rhombus;whiteSpace=wrap;html=1;" vertex="1" parent="1">
          <mxGeometry x="680" y="380" width="80" height="80" as="geometry" />
        </mxCell>
        <mxCell id="9171kYd5YMUd0yYPw1ae-25" value="" style="edgeStyle=orthogonalEdgeStyle;rounded=0;orthogonalLoop=1;jettySize=auto;html=1;" edge="1" parent="1" source="9171kYd5YMUd0yYPw1ae-14" target="9171kYd5YMUd0yYPw1ae-5">
          <mxGeometry relative="1" as="geometry" />
        </mxCell>
        <mxCell id="9171kYd5YMUd0yYPw1ae-26" value="" style="edgeStyle=orthogonalEdgeStyle;rounded=0;orthogonalLoop=1;jettySize=auto;html=1;" edge="1" parent="1" source="9171kYd5YMUd0yYPw1ae-14" target="9171kYd5YMUd0yYPw1ae-2">
          <mxGeometry relative="1" as="geometry" />
        </mxCell>
        <mxCell id="9171kYd5YMUd0yYPw1ae-14" value="tiene" style="rhombus;whiteSpace=wrap;html=1;" vertex="1" parent="1">
          <mxGeometry x="360" y="380" width="80" height="80" as="geometry" />
        </mxCell>
        <mxCell id="9171kYd5YMUd0yYPw1ae-19" value="" style="edgeStyle=orthogonalEdgeStyle;rounded=0;orthogonalLoop=1;jettySize=auto;html=1;" edge="1" parent="1" source="9171kYd5YMUd0yYPw1ae-15" target="9171kYd5YMUd0yYPw1ae-3">
          <mxGeometry relative="1" as="geometry" />
        </mxCell>
        <mxCell id="9171kYd5YMUd0yYPw1ae-15" value="tiene" style="rhombus;whiteSpace=wrap;html=1;" vertex="1" parent="1">
          <mxGeometry x="360" y="130" width="80" height="80" as="geometry" />
        </mxCell>
        <mxCell id="9171kYd5YMUd0yYPw1ae-36" value="1:n" style="text;html=1;align=center;verticalAlign=middle;resizable=0;points=[];autosize=1;strokeColor=none;fillColor=none;" vertex="1" parent="1">
          <mxGeometry x="235" y="230" width="30" height="20" as="geometry" />
        </mxCell>
        <mxCell id="9171kYd5YMUd0yYPw1ae-37" value="1:1" style="text;html=1;align=center;verticalAlign=middle;resizable=0;points=[];autosize=1;strokeColor=none;fillColor=none;" vertex="1" parent="1">
          <mxGeometry x="325" y="160" width="30" height="20" as="geometry" />
        </mxCell>
        <mxCell id="9171kYd5YMUd0yYPw1ae-38" value="1:n" style="text;html=1;align=center;verticalAlign=middle;resizable=0;points=[];autosize=1;strokeColor=none;fillColor=none;" vertex="1" parent="1">
          <mxGeometry x="755" y="160" width="30" height="20" as="geometry" />
        </mxCell>
        <mxCell id="9171kYd5YMUd0yYPw1ae-39" value="n:1" style="text;html=1;align=center;verticalAlign=middle;resizable=0;points=[];autosize=1;strokeColor=none;fillColor=none;" vertex="1" parent="1">
          <mxGeometry x="535" y="230" width="30" height="20" as="geometry" />
        </mxCell>
        <mxCell id="9171kYd5YMUd0yYPw1ae-40" value="1:1" style="text;html=1;align=center;verticalAlign=middle;resizable=0;points=[];autosize=1;strokeColor=none;fillColor=none;" vertex="1" parent="1">
          <mxGeometry x="335" y="410" width="30" height="20" as="geometry" />
        </mxCell>
        <mxCell id="9171kYd5YMUd0yYPw1ae-41" value="1:n" style="text;html=1;align=center;verticalAlign=middle;resizable=0;points=[];autosize=1;strokeColor=none;fillColor=none;" vertex="1" parent="1">
          <mxGeometry x="755" y="410" width="30" height="20" as="geometry" />
        </mxCell>
        <mxCell id="9171kYd5YMUd0yYPw1ae-42" value="1:n" style="text;html=1;align=center;verticalAlign=middle;resizable=0;points=[];autosize=1;strokeColor=none;fillColor=none;" vertex="1" parent="1">
          <mxGeometry x="135" y="410" width="30" height="20" as="geometry" />
        </mxCell>
      </root>
    </mxGraphModel>
  </diagram>
</mxfile>
